<?xml version="1.0" standalone="no"?>
<!DOCTYPE svg PUBLIC "-//W3C//DTD SVG 20010904//EN"
 "http://www.w3.org/TR/2001/REC-SVG-20010904/DTD/svg10.dtd">
<svg version="1.0" xmlns="http://www.w3.org/2000/svg"
 width="350.000000pt" height="136.000000pt" viewBox="0 0 350.000000 136.000000"
 preserveAspectRatio="xMidYMid meet">

<g transform="translate(0.000000,136.000000) scale(0.100000,-0.100000)"
fill="#000000" stroke="none">
<path d="M1045 1242 c-37 -6 -67 -26 -82 -55 -12 -25 -13 -31 -1 -38 23 -15
113 -10 134 7 10 8 13 13 6 9 -9 -4 -11 4 -10 30 3 33 5 35 28 30 14 -4 22 -4
18 0 -10 10 -70 21 -93 17z"/>
<path d="M555 1208 c-89 -11 -197 -68 -270 -142 -105 -106 -156 -233 -153
-381 l1 -80 7 90 c4 50 15 113 25 140 73 213 276 365 486 365 55 0 57 -1 112
-59 39 -41 57 -68 57 -85 0 -14 6 -26 13 -26 8 0 9 -3 1 -8 -6 -4 -14 -26 -17
-49 -4 -23 -10 -49 -14 -59 -4 -12 -3 -15 5 -10 7 4 12 2 12 -3 0 -6 -6 -11
-13 -11 -6 0 -18 -14 -26 -31 -8 -18 -34 -62 -59 -98 -56 -84 -108 -185 -123
-243 -11 -39 -18 -47 -48 -58 -20 -7 -44 -19 -54 -28 -22 -19 -34 -8 -16 15
12 16 12 17 -1 7 -23 -17 -82 -35 -74 -23 3 6 -2 16 -11 23 -15 11 -9 20 49
84 67 76 106 142 106 181 l0 23 -31 -26 c-17 -14 -37 -26 -44 -26 -7 0 -15 -4
-17 -9 -6 -16 -43 -17 -43 -1 0 8 6 14 13 12 6 -1 12 2 12 8 0 5 6 7 13 5 6
-3 30 6 52 18 40 23 43 32 33 93 -1 6 -23 17 -49 23 -47 12 -58 24 -60 64 -1
17 -3 14 -11 -10 -6 -18 -26 -49 -45 -70 -19 -21 -45 -56 -59 -79 -33 -56 -75
-178 -63 -183 13 -4 119 100 119 117 0 17 27 15 34 -3 3 -9 0 -15 -10 -15 -8
0 -41 -25 -72 -55 -31 -30 -64 -55 -73 -55 -10 0 -20 -11 -23 -25 -12 -47 5
-48 53 -3 l46 43 -44 -47 c-24 -25 -49 -44 -56 -42 -14 6 -30 -40 -20 -56 3
-5 1 -19 -5 -31 -16 -29 -4 -36 21 -13 20 18 20 18 14 -11 -4 -17 -20 -65 -36
-108 -32 -85 -31 -115 3 -113 17 1 26 15 49 80 19 55 38 90 66 118 43 44 112
79 141 71 11 -2 42 7 71 21 46 24 51 25 52 9 3 -48 9 -77 16 -82 4 -3 21 -24
38 -46 88 -120 230 -145 358 -63 45 29 95 84 84 94 -2 2 -34 -9 -71 -26 l-66
-31 -30 21 c-17 12 -30 25 -30 30 0 4 -18 17 -40 29 -37 19 -59 13 -24 -7 12
-6 13 -11 5 -16 -7 -5 -17 6 -26 27 -16 39 -41 53 -62 36 -7 -7 -16 -9 -20 -6
-3 4 1 9 10 12 12 5 7 14 -21 42 -21 19 -31 32 -24 28 6 -3 12 0 12 7 0 7 9
19 20 26 22 14 17 37 -6 28 -23 -9 -16 8 11 28 19 14 22 21 13 27 -7 4 -18 3
-25 -3 -8 -6 -16 -8 -20 -4 -3 3 -1 6 6 6 8 0 11 6 7 16 -3 8 -2 13 3 10 4 -3
20 8 35 24 29 33 36 73 11 64 -8 -4 -15 -14 -15 -23 0 -10 -7 -26 -16 -37 -14
-18 -15 -18 -4 4 6 12 9 26 6 31 -3 4 6 19 19 31 31 29 33 50 3 24 l-22 -19
20 26 c10 15 23 24 28 21 5 -3 6 0 3 5 -4 6 3 19 14 29 11 9 19 25 18 33 -1 9
-1 23 0 31 1 13 3 13 10 1 7 -11 12 -3 21 28 6 23 8 46 5 51 -3 6 -2 10 4 10
5 0 9 20 9 45 -1 25 -4 45 -7 45 -4 0 -8 15 -9 33 -2 21 -11 38 -27 50 -30 22
-32 37 -5 30 34 -9 22 4 -22 25 -49 23 -136 31 -223 20z m-154 -418 c-23 -17
-55 -52 -71 -77 -17 -26 -30 -42 -30 -37 0 21 62 103 93 123 49 32 55 25 8 -9z
m39 -17 c-25 -21 -62 -54 -82 -75 -41 -42 -40 -20 1 26 32 35 100 86 115 86 6
0 -9 -17 -34 -37z m52 -146 c-14 -16 -96 -46 -142 -51 l-35 -4 24 16 c28 19
51 24 51 11 0 -6 6 -7 13 -2 6 4 14 8 17 9 29 7 70 28 70 37 0 6 3 7 6 4 4 -4
2 -12 -4 -20z m-92 -64 c0 -5 -19 -24 -43 -43 -43 -35 -33 -14 13 27 27 25 30
27 30 16z m-50 -149 c11 -13 9 -19 -13 -42 -20 -20 -27 -23 -27 -10 0 8 7 21
15 28 9 7 13 15 10 18 -3 3 -14 -3 -25 -13 -24 -22 -27 -9 -3 17 20 22 27 22
43 2z m406 -33 c-10 -11 -25 -17 -33 -14 -12 5 -10 9 8 19 35 19 45 17 25 -5z
m24 -31 c13 -8 13 -10 -2 -10 -9 0 -20 5 -23 10 -8 13 5 13 25 0z m80 -20 c6
-11 7 -20 2 -20 -6 0 -12 9 -15 20 -3 11 -3 20 -1 20 2 0 8 -9 14 -20z m177
-26 c-3 -3 -12 -4 -19 -1 -8 3 -5 6 6 6 11 1 17 -2 13 -5z"/>
<path d="M860 1141 c0 -4 20 -17 45 -29 25 -12 45 -17 45 -12 0 6 -7 10 -15
10 -8 0 -15 4 -15 8 0 4 -13 13 -30 19 -16 6 -30 8 -30 4z"/>
<path d="M1025 1090 c-10 -17 44 -81 81 -96 38 -16 94 -19 94 -4 0 5 -7 7 -15
4 -8 -4 -27 -3 -41 0 -21 6 -24 9 -14 21 7 8 9 15 4 16 -5 0 0 4 11 8 15 6 23
3 32 -13 7 -11 12 -15 13 -7 0 7 -15 28 -34 47 -29 29 -41 34 -79 34 -25 0
-49 -5 -52 -10z"/>
<path d="M964 1024 c-8 -42 0 -75 23 -101 10 -10 17 -17 16 -14 -2 3 44 31 52
31 2 0 6 -10 8 -22 2 -13 5 -4 6 19 1 34 -5 49 -29 76 -17 19 -39 37 -50 40
-16 4 -21 -1 -26 -29z"/>
<path d="M861 994 c0 -11 3 -14 6 -6 3 7 2 16 -1 19 -3 4 -6 -2 -5 -13z"/>
<path d="M884 976 c-8 -22 3 -33 18 -18 9 9 9 15 0 24 -9 9 -13 7 -18 -6z"/>
<path d="M625 970 c-112 -16 -145 -64 -79 -117 19 -15 49 -41 65 -57 l30 -29
-6 26 c-11 42 29 102 77 116 33 10 37 15 27 27 -7 8 -18 13 -24 10 -7 -2 -18
0 -26 6 -11 8 -10 9 4 4 10 -3 16 -2 13 3 -8 13 -37 17 -81 11z"/>
<path d="M1434 944 c25 -24 23 -279 -1 -307 -18 -19 -16 -19 87 -15 121 5 145
15 162 71 14 48 -1 85 -42 100 l-30 11 25 21 c40 33 42 69 7 105 -30 29 -33
30 -127 30 -88 0 -95 -1 -81 -16z m154 -20 c26 -18 30 -65 6 -88 -9 -9 -32
-16 -55 -16 l-39 0 0 60 0 60 33 0 c18 0 43 -7 55 -16z m-12 -134 c44 0 69
-74 39 -117 -15 -22 -71 -38 -99 -27 -24 9 -23 141 2 147 9 3 23 3 30 1 8 -2
20 -4 28 -4z"/>
<path d="M2620 938 c-33 -17 -51 -35 -67 -68 -29 -56 -29 -99 -1 -160 29 -62
75 -90 149 -90 71 0 103 17 107 55 l4 30 -25 -27 c-80 -87 -204 -4 -194 130 9
120 114 170 189 90 l28 -30 0 31 c0 27 -5 34 -35 47 -49 20 -104 17 -155 -8z"/>
<path d="M850 935 c0 -8 2 -15 4 -15 2 0 6 7 10 15 3 8 1 15 -4 15 -6 0 -10
-7 -10 -15z"/>
<path d="M900 927 c0 -14 24 -57 32 -57 5 0 1 12 -9 28 -22 35 -23 36 -23 29z"/>
<path d="M877 890 c3 -11 9 -20 14 -20 11 0 11 3 3 24 -9 23 -23 20 -17 -4z"/>
<path d="M1212 849 c15 -47 21 -92 22 -169 2 -235 -104 -415 -298 -510 -185
-91 -380 -71 -552 55 l-49 36 48 -45 c146 -137 387 -166 586 -69 29 14 84 55
122 91 77 72 127 160 155 272 23 89 15 243 -16 325 -31 82 -43 92 -18 14z"/>
<path d="M903 840 c-1 -11 2 -22 8 -25 5 -4 8 3 6 14 -4 28 -12 34 -14 11z"/>
<path d="M860 836 c0 -8 4 -17 8 -20 4 -2 8 4 8 15 0 10 -4 19 -8 19 -4 0 -8
-6 -8 -14z"/>
<path d="M1793 838 c-13 -6 -23 -20 -23 -31 0 -20 0 -20 20 1 24 26 52 28 74
6 30 -29 20 -51 -30 -63 -70 -18 -94 -37 -94 -77 0 -28 5 -36 26 -44 35 -14
77 -13 92 2 9 9 15 9 24 0 14 -14 54 -16 62 -3 3 5 -1 11 -9 15 -12 4 -15 23
-15 84 0 48 -5 85 -13 96 -16 21 -84 30 -114 14z m87 -132 c0 -32 -27 -66 -52
-66 -12 0 -38 31 -38 46 0 22 38 54 65 54 22 0 25 -4 25 -34z"/>
<path d="M2243 838 c-13 -6 -23 -20 -23 -31 0 -20 0 -20 23 1 28 26 50 28 71
6 30 -30 20 -51 -31 -64 -27 -6 -56 -19 -65 -27 -22 -20 -23 -66 -2 -87 18
-19 75 -21 92 -4 9 9 15 9 24 0 14 -14 54 -16 62 -3 3 5 -1 11 -9 15 -12 4
-15 23 -15 83 0 43 -4 83 -8 89 -21 31 -78 42 -119 22z m87 -132 c0 -32 -27
-66 -52 -66 -12 0 -38 31 -38 46 0 22 38 54 65 54 22 0 25 -4 25 -34z"/>
<path d="M2883 838 c-13 -6 -23 -20 -23 -31 0 -20 0 -20 23 1 28 26 50 28 71
6 30 -30 20 -51 -31 -64 -27 -6 -56 -19 -65 -27 -22 -20 -23 -66 -2 -87 18
-19 75 -21 92 -4 9 9 15 9 24 0 14 -14 54 -16 62 -3 3 5 -1 11 -9 15 -12 4
-15 24 -15 86 0 67 -3 83 -20 100 -22 22 -71 26 -107 8z m87 -133 c0 -38 -34
-70 -64 -59 -26 10 -21 68 7 82 43 21 57 15 57 -23z"/>
<path d="M3140 830 c-16 -16 -20 -17 -20 -5 0 10 -10 15 -30 15 -27 0 -30 -2
-20 -19 5 -11 10 -52 10 -91 0 -39 -5 -80 -10 -91 -10 -17 -7 -19 32 -19 33 0
39 3 30 12 -7 7 -12 41 -12 84 0 77 13 101 49 91 13 -3 21 1 24 14 9 35 -22
40 -53 9z"/>
<path d="M3253 831 c-59 -37 -66 -140 -11 -186 35 -29 92 -33 126 -9 28 19 30
39 2 24 -38 -20 -82 -8 -103 28 -29 50 -18 62 58 62 62 0 65 1 65 24 0 61 -78
94 -137 57z m82 -21 c28 -31 13 -50 -40 -50 -49 0 -56 10 -29 48 19 27 45 28
69 2z"/>
<path d="M2000 763 c58 -121 65 -149 46 -178 -9 -13 -28 -25 -43 -27 -14 -2
-28 -9 -31 -15 -6 -20 52 -16 70 5 19 21 68 117 68 132 0 6 15 45 34 86 l35
74 -25 0 c-15 0 -23 -4 -19 -11 4 -6 -6 -43 -21 -84 l-28 -73 -28 71 c-16 39
-27 76 -24 84 4 9 -5 13 -32 13 l-38 0 36 -77z"/>
<path d="M821 814 c0 -11 3 -14 6 -6 3 7 2 16 -1 19 -3 4 -6 -2 -5 -13z"/>
<path d="M935 803 c3 -8 5 -17 5 -19 0 -2 4 -4 8 -4 4 0 8 8 8 18 0 10 -6 19
-14 19 -7 0 -10 -7 -7 -14z"/>
<path d="M887 791 c-3 -11 1 -22 9 -25 19 -7 24 6 9 27 -12 16 -13 16 -18 -2z"/>
<path d="M786 788 c3 -5 0 -15 -6 -23 -7 -8 -9 -15 -5 -15 8 0 34 31 35 41 0
3 -7 6 -15 6 -8 0 -12 -4 -9 -9z"/>
<path d="M921 744 c0 -11 3 -14 6 -6 3 7 2 16 -1 19 -3 4 -6 -2 -5 -13z"/>
<path d="M950 756 c0 -2 7 -6 15 -10 8 -3 15 -1 15 4 0 6 -7 10 -15 10 -8 0
-15 -2 -15 -4z"/>
<path d="M1016 744 c-3 -9 -11 -12 -18 -8 -7 4 -10 3 -5 -1 4 -5 18 -10 30
-11 12 -2 17 0 10 2 -7 3 -9 12 -6 20 3 8 3 14 0 14 -3 0 -8 -7 -11 -16z"/>
<path d="M796 733 c-6 -15 -8 -15 -16 -3 -6 8 -10 11 -10 5 0 -5 4 -17 10 -25
8 -12 10 -12 16 3 3 9 10 14 15 11 5 -3 9 2 9 10 0 21 -16 20 -24 -1z"/>
<path d="M880 724 c0 -8 5 -12 10 -9 6 4 8 11 5 16 -9 14 -15 11 -15 -7z"/>
<path d="M957 709 c4 -13 8 -18 11 -10 2 7 -1 18 -6 23 -8 8 -9 4 -5 -13z"/>
<path d="M836 712 c-3 -6 1 -13 10 -16 23 -9 28 -2 10 13 -8 7 -17 8 -20 3z"/>
<path d="M900 699 c0 -5 5 -7 10 -4 6 3 10 8 10 11 0 2 -4 4 -10 4 -5 0 -10
-5 -10 -11z"/>
<path d="M990 706 c0 -1 9 -9 20 -19 15 -13 20 -14 20 -3 0 7 -9 16 -20 19
-11 3 -20 4 -20 3z"/>
<path d="M786 684 c-20 -19 -20 -24 -2 -24 7 0 16 9 19 20 6 24 3 25 -17 4z"/>
<path d="M980 678 c0 -9 5 -20 11 -23 17 -11 18 -2 3 19 -12 17 -14 17 -14 4z"/>
<path d="M857 651 c-16 -10 -25 -21 -20 -23 4 -2 19 6 32 19 29 28 25 29 -12
4z"/>
<path d="M902 658 c-18 -18 -15 -27 7 -25 14 1 17 5 10 13 -7 8 -6 14 3 17 7
3 8 6 3 6 -6 1 -16 -4 -23 -11z"/>
<path d="M1040 657 c0 -6 5 -19 10 -27 9 -13 10 -13 10 0 0 13 1 13 10 0 5 -8
10 -10 10 -5 0 6 -9 18 -20 28 -13 11 -20 13 -20 4z"/>
<path d="M733 635 c-19 -21 -16 -27 7 -15 11 6 20 15 20 20 0 14 -13 12 -27
-5z"/>
<path d="M770 640 c0 -5 9 -14 20 -20 11 -6 20 -9 20 -8 0 2 -9 11 -20 21 -11
9 -20 13 -20 7z"/>
<path d="M970 632 c0 -12 19 -26 26 -19 2 2 -2 10 -11 17 -9 8 -15 8 -15 2z"/>
<path d="M1010 637 c0 -4 9 -16 21 -28 15 -15 24 -18 30 -10 5 6 6 9 2 6 -3
-3 -17 5 -30 17 -13 12 -23 18 -23 15z"/>
<path d="M917 606 c-12 -9 -14 -16 -8 -21 6 -3 11 -1 11 4 0 6 12 11 26 11 14
0 23 4 19 10 -8 14 -26 12 -48 -4z"/>
<path d="M1081 603 c4 -23 -2 -32 -18 -26 -11 4 -14 3 -9 -6 5 -7 14 -10 22
-7 7 3 18 -3 23 -12 10 -16 10 -16 11 1 0 9 -5 17 -11 17 -6 0 -9 7 -6 15 4 8
2 17 -4 20 -5 4 -9 3 -8 -2z"/>
<path d="M742 580 c-26 -22 -27 -27 -6 -27 9 0 19 8 21 18 3 10 11 15 19 12 8
-3 14 -3 14 0 0 14 -28 12 -48 -3z"/>
<path d="M796 575 c-3 -8 -1 -15 4 -15 6 0 10 7 10 15 0 8 -2 15 -4 15 -2 0
-6 -7 -10 -15z"/>
<path d="M970 580 c-8 -5 -10 -10 -5 -10 6 0 17 5 25 10 8 5 11 10 5 10 -5 0
-17 -5 -25 -10z"/>
<path d="M828 573 c6 -2 18 -2 25 0 6 3 1 5 -13 5 -14 0 -19 -2 -12 -5z"/>
<path d="M888 568 c5 -5 16 -8 23 -6 8 3 3 7 -10 11 -17 4 -21 3 -13 -5z"/>
<path d="M2419 526 c-15 -67 -24 -77 -33 -36 -6 34 -21 39 -29 10 -5 -19 -15
-20 -459 -23 l-453 -2 458 -3 c299 -1 457 1 457 8 0 25 20 6 26 -25 3 -19 10
-35 14 -35 4 0 13 26 20 58 14 63 22 56 35 -32 4 -25 11 -46 15 -46 4 0 12 17
18 38 l11 37 443 0 443 -1 -429 3 c-394 3 -430 5 -442 21 -11 16 -13 15 -23
-11 -6 -16 -11 -34 -11 -40 -1 -27 -19 20 -25 63 -10 75 -21 80 -36 16z"/>
<path d="M930 555 c0 -8 -2 -15 -4 -15 -2 0 -12 -3 -22 -7 -12 -4 -15 -3 -10
5 4 7 2 12 -4 12 -6 0 -10 -6 -9 -12 2 -7 -5 -30 -14 -51 -16 -36 -20 -120 -5
-111 4 3 10 -2 15 -9 20 -35 93 -48 136 -25 12 6 35 12 51 13 20 1 32 8 37 24
6 14 5 20 -1 16 -6 -4 -8 7 -5 27 l5 33 -10 -29 c-5 -16 -7 -33 -4 -37 2 -4
-5 -13 -16 -19 -21 -11 -27 -1 -11 16 6 5 14 28 19 52 10 40 8 44 -23 78 -19
19 -34 38 -34 42 0 4 -5 8 -12 11 -6 2 -9 -1 -6 -6 3 -5 -9 -9 -28 -9 -19 0
-31 4 -29 8 3 4 0 8 -5 8 -6 0 -11 -7 -11 -15z"/>
<path d="M1058 543 c12 -8 22 -22 22 -30 0 -8 5 -11 10 -8 6 3 10 -1 10 -10 0
-9 5 -13 10 -10 6 3 10 -1 10 -10 0 -9 -4 -14 -8 -11 -5 3 -6 -9 -3 -27 4 -31
5 -31 12 -7 4 14 7 33 8 43 1 20 -62 87 -81 86 -7 0 -3 -7 10 -16z"/>
<path d="M780 534 c0 -8 5 -12 10 -9 6 3 10 10 10 16 0 5 -4 9 -10 9 -5 0 -10
-7 -10 -16z"/>
<path d="M747 533 c-12 -12 -7 -22 8 -17 8 4 15 10 15 15 0 11 -14 12 -23 2z"/>
<path d="M855 529 c-4 -6 -5 -12 -2 -15 2 -3 7 2 10 11 7 17 1 20 -8 4z"/>
<path d="M797 507 c-20 -11 -37 -28 -37 -36 1 -13 2 -13 11 2 6 9 15 15 20 12
5 -4 7 -11 4 -16 -4 -5 0 -9 7 -9 9 0 9 -3 -2 -10 -8 -5 -10 -10 -5 -10 6 0 4
-4 -3 -9 -10 -6 -10 -10 3 -21 13 -11 15 -9 17 11 0 13 0 33 -1 43 -1 11 6 27
15 38 25 27 13 29 -29 5z"/>
<path d="M712 498 c-14 -14 -16 -38 -3 -38 5 0 14 7 21 15 9 11 9 15 1 15 -7
0 -9 5 -6 10 8 14 2 13 -13 -2z"/>
<path d="M505 480 c-3 -5 -1 -10 4 -10 6 0 11 5 11 10 0 6 -2 10 -4 10 -3 0
-8 -4 -11 -10z"/>
<path d="M820 482 c0 -5 7 -9 15 -9 8 0 12 4 9 9 -3 4 -9 8 -15 8 -5 0 -9 -4
-9 -8z"/>
<path d="M737 464 c-3 -3 1 -13 9 -22 12 -12 18 -12 27 -2 9 10 9 11 0 6 -6
-3 -16 1 -20 9 -5 9 -12 13 -16 9z"/>
<path d="M827 446 c-4 -10 -5 -21 -2 -24 9 -9 17 6 13 25 -3 17 -4 17 -11 -1z"/>
<path d="M1458 320 c-3 -55 9 -70 14 -17 l3 32 16 -29 17 -30 18 35 19 34 6
-45 6 -45 1 58 c2 63 -9 73 -28 27 -7 -16 -16 -30 -21 -30 -5 0 -15 14 -24 30
-9 17 -17 30 -19 30 -2 0 -6 -23 -8 -50z"/>
<path d="M1750 356 c0 -9 -12 -16 -27 -18 -23 -2 -29 -9 -31 -34 -3 -35 10
-45 51 -37 25 5 27 9 27 54 0 27 -4 49 -10 49 -5 0 -10 -6 -10 -14z m-10 -41
c10 -12 10 -18 0 -29 -14 -18 -40 -10 -40 13 0 32 20 40 40 16z"/>
<path d="M2035 320 c0 -27 3 -50 8 -50 4 0 7 23 7 50 0 28 -3 50 -7 50 -5 0
-8 -22 -8 -50z"/>
<path d="M2137 363 c-11 -10 -8 -93 3 -93 6 0 10 7 10 15 0 22 23 18 38 -6 7
-12 16 -18 19 -15 3 3 0 12 -6 20 -9 11 -9 19 0 34 10 16 10 23 0 36 -14 16
-52 22 -64 9z m51 -26 c2 -12 -3 -17 -17 -17 -15 0 -21 6 -21 21 0 25 33 22
38 -4z"/>
<path d="M2640 352 c0 -13 -8 -18 -27 -17 -22 0 -29 -5 -31 -24 -4 -29 11 -46
43 -46 23 -1 25 2 25 52 0 29 -2 53 -5 53 -3 0 -5 -8 -5 -18z m-6 -38 c8 -21
-11 -45 -30 -37 -14 5 -19 34 -7 46 12 12 31 7 37 -9z"/>
<path d="M2820 355 c-10 -12 -10 -18 0 -30 7 -8 18 -15 26 -15 19 0 29 -21 13
-30 -7 -5 -21 -4 -31 1 -12 6 -18 6 -18 0 0 -16 40 -24 55 -11 22 19 18 39
-10 50 -31 12 -35 45 -5 37 11 -3 18 -1 14 4 -8 14 -30 11 -44 -6z"/>
<path d="M3077 346 c-8 -22 8 -79 23 -84 12 -4 13 -2 3 9 -15 15 -17 56 -4 61
5 2 3 8 -4 15 -10 9 -14 9 -18 -1z"/>
<path d="M1602 328 c-31 -31 2 -79 41 -60 l22 11 -24 -2 c-13 -1 -26 4 -28 11
-3 7 5 12 21 12 29 0 36 24 10 34 -22 8 -28 8 -42 -6z m43 -8 c3 -5 -3 -10
-15 -10 -12 0 -18 5 -15 10 3 6 10 10 15 10 5 0 12 -4 15 -10z"/>
<path d="M1800 305 c0 -19 5 -35 10 -35 6 0 10 16 10 35 0 19 -4 35 -10 35 -5
0 -10 -16 -10 -35z"/>
<path d="M1862 331 c-18 -11 -11 -51 10 -65 13 -8 21 -7 30 3 11 10 10 12 -2
11 -33 -5 -41 1 -38 23 2 15 10 22 25 21 12 0 20 3 17 8 -7 10 -25 10 -42 -1z"/>
<path d="M1944 329 c-5 -9 -2 -10 10 -6 10 4 23 4 29 0 7 -4 2 -9 -13 -13 -37
-9 -34 -45 3 -45 26 -1 28 2 25 35 -2 27 -8 36 -25 38 -11 2 -25 -2 -29 -9z
m46 -38 c0 -12 -28 -22 -34 -12 -3 5 -3 11 1 15 9 9 33 7 33 -3z"/>
<path d="M2241 321 c-20 -36 13 -72 47 -51 14 8 13 9 -7 7 -13 -1 -26 4 -28
11 -3 7 5 12 22 12 20 0 26 4 23 18 -5 25 -44 28 -57 3z m44 -1 c3 -5 -3 -10
-15 -10 -12 0 -18 5 -15 10 3 6 10 10 15 10 5 0 12 -4 15 -10z"/>
<path d="M2342 331 c-18 -11 -11 -51 10 -65 13 -8 21 -7 30 3 11 10 10 12 -2
11 -33 -5 -41 1 -38 23 2 15 10 22 25 21 12 0 20 3 17 8 -7 10 -25 10 -42 -1z"/>
<path d="M2420 321 c-20 -38 13 -71 51 -51 21 12 25 40 7 58 -18 18 -46 14
-58 -7z m50 -6 c10 -12 10 -18 0 -29 -14 -18 -40 -10 -40 13 0 32 20 40 40 16z"/>
<path d="M2521 295 c2 -33 3 -35 6 -10 3 16 12 35 21 41 15 12 15 13 -5 11
-20 -1 -23 -6 -22 -42z"/>
<path d="M2684 328 c-4 -7 2 -18 14 -26 28 -19 28 -35 1 -27 -15 5 -19 4 -15
-4 10 -15 31 -14 46 3 9 12 7 17 -9 28 -24 15 -28 33 -6 24 8 -3 15 -1 15 4 0
14 -37 12 -46 -2z"/>
<path d="M2900 336 c0 -2 7 -20 15 -41 13 -30 14 -40 3 -53 -11 -13 -11 -14 0
-8 16 9 55 96 48 104 -3 3 -10 -8 -17 -24 l-11 -29 -14 28 c-13 24 -24 35 -24
23z"/>
<path d="M2994 329 c-4 -7 3 -19 15 -28 24 -18 19 -33 -7 -24 -13 5 -14 3 -5
-7 15 -16 43 -6 43 15 0 9 -7 18 -15 21 -8 4 -15 11 -15 16 0 6 7 8 15 4 8 -3
15 -1 15 4 0 14 -37 12 -46 -1z"/>
<path d="M3141 326 c-26 -31 12 -77 47 -56 14 8 13 9 -7 7 -13 -1 -26 4 -28
11 -3 7 5 12 22 12 20 0 26 4 23 18 -4 22 -41 27 -57 8z m44 -6 c3 -5 -3 -10
-15 -10 -12 0 -18 5 -15 10 3 6 10 10 15 10 5 0 12 -4 15 -10z"/>
<path d="M3231 296 l1 -41 8 33 c4 18 10 35 13 39 11 11 27 -9 28 -35 1 -26 1
-25 10 6 12 41 32 37 41 -9 6 -34 6 -34 5 6 l-2 40 -52 1 -53 1 1 -41z"/>
<path d="M922 314 c10 -10 20 -15 24 -12 3 4 -5 12 -18 18 -22 12 -22 12 -6
-6z"/>
</g>
</svg>
